<svg xmlns="http://www.w3.org/2000/svg" viewBox="0 0 143 141" width="143" height="141">
	<defs>
		<clipPath clipPathUnits="userSpaceOnUse" id="cp1">
			<path d="M-396 -691L795 -691L795 993L-396 993L-396 -691Z" />
		</clipPath>
	</defs>
	<style>
		tspan { white-space:pre }
		.shp0 { fill: #ffffff } 
		.shp1 { fill: #00ab4f } 
		.shp2 { fill: #0065b7 } 
		.shp3 { fill: #9b9c9f;stroke: #707176;stroke-width: 0.493 } 
		.shp4 { fill: #0065b7;stroke: #707176;stroke-width: 0.493 } 
		.shp5 { fill: none;stroke: #707176;stroke-width: 0.493 } 
		.shp6 { fill: #2e3435;stroke: #707176;stroke-width: 0.494 } 
		.shp7 { fill: #2e3435;stroke: #707176;stroke-width: 0.493 } 
		.shp8 { fill: #c4c5c7;stroke: #707176;stroke-width: 0.493 } 
		.shp9 { fill: #e9eeeb;stroke: #707176;stroke-width: 0.493 } 
		.shp10 { opacity: 0.839;fill: #2c2e35;stroke: #2c2e35;stroke-width: 0.559 } 
		.shp11 { fill: #d8d9da;stroke: #707176;stroke-width: 0.492 } 
		.shp12 { fill: none;stroke: #707176;stroke-width: 0.986 } 
		.shp13 { fill: #d8d9da } 
		.shp14 { fill: #c7c6b6 } 
		.shp15 { fill: #2e3435 } 
		.shp16 { fill: #797b7a } 
	</style>
	<g id="Clip-Path: Clip-Path: Page 1" clip-path="url(#cp1)">
		<g id="Clip-Path: Page 1">
			<g id="Page 1">
				<path id="Path 19" fill-rule="evenodd" class="shp0" d="M133.53 55.72L139.5 61.27C144.41 67.49 141.36 82.8 140 89.95C139.2 94.15 138.61 98.35 137.61 102.51C136.14 108.65 131.22 112.87 125.37 114.78L115.67 117.96L118.53 128.36L83.76 110.43L100.06 75.27L84.53 61.56L108.75 33.97L133.53 55.72ZM108.49 82.71L103.35 78.17L105.13 83.75L108.49 82.71ZM54.88 138.31L47.03 140.48C39.16 141.42 27.71 130.8 22.34 125.9C19.18 123.02 15.9 120.32 12.88 117.29C8.42 112.83 7.4 106.41 8.83 100.44L11.2 90.51L0.84 87.5L34.32 67.26L55.74 99.56L75.56 93.49L86.39 128.58L54.88 138.31ZM45 102.84L51.55 100.84L45.86 99.43L45 102.84ZM25.32 26.5L27.46 18.64C30.68 11.41 45.67 7 52.63 4.89C56.72 3.65 60.71 2.21 64.87 1.16C70.97 -0.38 77.02 2.03 81.41 6.31L88.73 13.43L96.61 6.06L96.88 45.19L58.17 47.07L53.24 67.19L17.55 58.55L25.32 26.5ZM60.84 36.16L59.21 42.81L63.33 38.65L60.84 36.16Z" />
				<path id="Path 20" fill-rule="evenodd" class="shp1" d="M73.81 96.78L83.09 126.84L49.58 137.18C41.09 134.11 39.55 128.73 41.15 122.68L45.73 105.38L73.81 96.78ZM51.31 64.01L20.74 56.61L28.99 22.52C35.98 16.8 41.39 18.22 45.76 22.69L58.29 35.48L51.31 64.01ZM94.23 42.68L61.48 44.27L67.05 38.64L46.07 17.65C39.72 13.72 34.66 16.07 29.87 19.72C32.01 14.91 41.1 11.14 53.39 7.41C57.2 6.25 61.16 4.82 65.51 3.72C70.1 2.56 75.28 4.01 79.58 8.2L88.69 17.07L94.02 12.09L94.23 42.68ZM88.24 61.33L108.99 37.69L135.35 60.83C137.17 69.67 133.4 73.8 127.41 75.6L110.27 80.76L88.24 61.33ZM33.52 70.82L51.64 98.14L43.95 96.24L36.66 125C36.53 132.47 41.13 135.61 46.72 137.86C41.5 138.48 33.6 132.6 24.11 123.95C21.17 121.27 17.91 118.6 14.74 115.43C11.4 112.08 10 106.89 11.39 101.05L14.35 88.68L7.35 86.65L33.52 70.82ZM87.21 109.25L101.01 79.51L103.41 87.05L131.73 78.22C138.16 74.42 138.43 68.85 137.43 62.9C140.69 67.03 139.81 76.84 137.41 89.45C136.66 93.36 136.1 97.54 135.05 101.9C133.94 106.5 130.26 110.41 124.55 112.28L112.47 116.23L114.4 123.26L87.21 109.25Z" />
				<path id="Path 22" class="shp0" d="M106.35 28.84L107.51 29.67C108.68 29.96 109.78 30.38 110.97 30.96L111.21 31.08L113 34.08C113.02 34.16 113.03 34.24 113.04 34.32C114.31 35.21 115.09 36.69 115.12 38.28L115.42 53.51C115.46 55.53 114.07 57.34 112.06 57.69L111.63 57.77L111.18 57.81L108.4 58.09C108.23 58.63 107.93 59.12 107.54 59.52C107.55 60.92 107.55 62.33 107.55 63.73L107.55 63.79L107.72 63.8L107.62 65.37C108.15 65.99 108.46 66.79 108.46 67.63L108.46 71.39C108.46 71.56 108.45 71.72 108.43 71.89C108.87 72.33 109.29 72.81 109.65 73.31C110.03 73.8 110.36 74.32 110.57 74.9C110.76 75.4 110.84 75.93 110.89 76.44C111.05 77.62 111.11 78.82 111.18 80.01L111.18 80.09L111.18 104.74C111.18 105.1 111.18 104.9 111.16 105.21C111.16 105.24 111.16 105.27 111.15 105.31L111.15 105.36C111.13 105.58 111.15 105.43 111.11 105.7C111.1 105.73 111.1 105.75 111.09 105.79L111.09 105.82L111.08 105.87C111.04 106.08 111.06 105.96 111.02 106.15C110.99 106.29 111 106.24 110.96 106.38C110.95 106.44 110.93 106.5 110.91 106.55C110.61 107.55 110.07 108.45 109.32 109.15L109.32 117.49C109.32 119.39 107.8 120.96 105.89 120.96L97.1 120.96C95.19 120.96 93.67 119.39 93.67 117.49L93.67 110.83L92.26 110.83L92 110.39L86.87 110.39L86.87 110.43L61.57 110.43L61.56 110.39L54.78 110.39L54.53 110.83L53.01 110.83L53.01 117.49C53.01 119.39 51.49 120.96 49.58 120.96L40.79 120.96C38.88 120.96 37.36 119.39 37.36 117.49L37.36 109.06C36.56 108.26 36.01 107.24 35.76 106.11L35.67 105.62L35.66 105.58L35.65 105.48L35.62 105.12L35.61 104.98L35.61 104.92L35.61 104.75L35.61 80.09L35.61 80.01C35.68 78.83 35.74 77.62 35.89 76.46L35.89 76.44C35.95 75.91 36.03 75.39 36.22 74.9C36.43 74.32 36.76 73.79 37.15 73.3C37.51 72.8 37.92 72.33 38.36 71.89C38.34 71.72 38.32 71.56 38.32 71.39L38.32 67.63C38.32 66.75 38.66 65.92 39.24 65.29C39.23 63.33 39.23 61.36 39.25 59.4C38.92 59.02 38.66 58.57 38.5 58.09L35.71 57.81L35.27 57.77L34.85 57.69C32.84 57.34 31.45 55.53 31.49 53.51L31.78 38.28C31.82 36.69 32.59 35.21 33.87 34.32C33.88 34.24 33.89 34.17 33.9 34.09L35.69 31.08C37.14 30.35 38.44 29.86 39.87 29.55C40.01 29.37 40.17 29.19 40.38 29C40.51 28.87 40.65 28.75 40.79 28.64C40.97 27.57 41.2 26.5 41.48 25.45C41.53 25.21 41.59 24.97 41.64 24.74L41.68 24.56L41.75 24.39C42.17 23.25 43.11 22.63 44.19 22.26C46.81 21.13 51.64 20.91 54.43 20.78C56.64 20.67 58.84 20.62 61.02 20.59C71.91 20.18 83.55 20.08 94.44 20.89C95.95 20.99 97.46 21.12 98.94 21.34C100.81 21.59 103.59 21.96 104.74 23.63L105.03 24.05L105.16 24.53C105.5 25.87 105.8 27.23 106.04 28.59C106.15 28.67 106.25 28.75 106.35 28.84Z" />
				<path id="Path 23" class="shp2" d="M108.08 76.77C108.03 76.33 107.97 76 107.91 75.88C107.83 75.62 107.64 75.32 107.38 74.99C106.92 74.34 106.09 73.41 104.65 72.38C104.65 72.35 104.65 72.32 104.65 72.29L105.35 71.86C105.52 71.76 105.63 71.57 105.63 71.36L105.63 67.61C105.63 67.38 105.5 67.17 105.3 67.08L105.03 66.95C104.83 66.86 104.7 66.65 104.7 66.41C104.79 53.19 104.36 45.15 103.53 32.02C103.39 29.87 103.01 27.69 102.42 25.63C102.07 24.42 97.93 23.85 92.17 23.58C87.98 23.39 82.92 23.35 77.81 23.35C76.34 23.35 74.86 23.36 73.4 23.36C71.92 23.36 70.42 23.35 68.92 23.35C63.81 23.35 58.75 23.39 54.57 23.58C48.83 23.85 44.72 24.42 44.37 25.63C43.77 27.69 43.4 29.87 43.26 32.02C42.43 45.15 42 53.19 42.09 66.41C42.09 66.65 41.96 66.86 41.76 66.95L41.49 67.08C41.29 67.17 41.16 67.38 41.16 67.61L41.16 71.36C41.16 71.57 41.26 71.76 41.44 71.86L42.14 72.29C42.14 72.32 42.14 72.35 42.14 72.38C39.68 74.13 39.01 75.61 38.88 75.88C38.63 76.35 38.49 80.04 38.49 80.58L38.45 104.71C38.44 106 39.16 107.11 40.2 107.62C40.58 107.81 41.01 107.92 41.46 107.92L50.18 107.96L52.8 107.97L52.8 107.97L52.91 107.97L53.16 107.53L70.14 107.51L70.14 107.53L93.62 107.53L93.88 107.97L93.99 107.97L105.33 107.92C105.78 107.92 106.21 107.81 106.59 107.62C106.8 107.52 107 107.39 107.18 107.24C107.19 107.24 107.19 107.23 107.2 107.22C107.25 107.19 107.29 107.15 107.33 107.11C107.75 106.72 108.04 106.23 108.2 105.7C108.21 105.67 108.22 105.64 108.22 105.61C108.23 105.57 108.24 105.53 108.25 105.49C108.27 105.43 108.28 105.38 108.29 105.33C108.29 105.3 108.3 105.27 108.3 105.24C108.31 105.17 108.32 105.11 108.33 105.04C108.33 105.02 108.33 105 108.33 104.98C108.34 104.89 108.34 104.8 108.34 104.71L108.34 80.15C108.28 78.96 108.19 77.67 108.08 76.77Z" />
				<path id="Path 24" class="shp3" d="M50.19 107.93L50.19 117.44C50.19 117.79 49.92 118.07 49.6 118.07L40.8 118.07C40.48 118.07 40.21 117.79 40.21 117.44L40.21 107.6C40.59 107.79 41.02 107.9 41.48 107.9L50.19 107.93Z" />
				<path id="Path 25" class="shp3" d="M96.52 107.93L96.52 117.44C96.52 117.79 96.79 118.07 97.12 118.07L105.91 118.07C106.24 118.07 106.5 117.79 106.5 117.44L106.5 107.6C106.12 107.79 105.69 107.9 105.24 107.9L96.52 107.93Z" />
				<path id="Path 26" class="shp4" d="M107.91 75.86C107.53 74.62 104.53 72.27 104.53 72.27C104.53 76.11 103.63 78.38 101.63 78.57C99.75 78.76 96.22 79.19 96.22 79.19C94.23 79.45 93.09 80.06 92.68 80.47C91.49 81.66 90.86 82.11 88.26 82.11L74.49 82.11L72.31 82.11L58.54 82.11C55.94 82.11 55.31 81.66 54.12 80.47C53.71 80.06 52.57 79.45 50.58 79.19C50.58 79.19 47.05 78.76 45.17 78.57C43.17 78.38 42.27 76.11 42.27 72.27C42.27 72.27 39.27 74.62 38.89 75.86C38.68 76.55 38.55 78.44 38.46 80.12L38.46 104.69C38.46 106.18 39.43 107.76 41.48 107.9L52.82 107.94L53.07 107.51L70.14 107.51L76.66 107.51L93.73 107.51L93.98 107.94L105.32 107.9C107.37 107.76 108.34 106.18 108.34 104.69L108.34 80.12C108.25 78.44 108.12 76.55 107.91 75.86Z" />
				<path id="Path 27" fill-rule="evenodd" class="shp5" d="M89.52 83.96L73.36 84.07L57.19 83.96M61.89 100.9C61.43 100.9 60.98 101.03 60.57 101.27C59.2 94.64 57.57 90.37 55.08 83.05C55.67 83.63 56.41 83.95 57.19 83.96M84.82 100.9L73.36 100.92L61.89 100.9M89.52 83.96C90.3 83.95 91.05 83.63 91.63 83.05C89.14 90.37 87.51 94.64 86.14 101.27C85.74 101.03 85.28 100.9 84.82 100.9" />
				<path id="Path 28" class="shp6" d="M55.83 84.1L63.66 107.56L73.36 107.56L84.71 107.56L91.02 84.1L55.83 84.1Z" />
				<path id="Path 29" class="shp7" d="M73.36 95.59L62.38 95.43L62.78 100.67L73.36 100.67L83.93 100.67L84.33 95.43L73.36 95.59Z" />
				<path id="Path 30" class="shp8" d="M94.07 64.27C93.96 64.09 93.77 63.97 93.56 63.96C89.13 63.73 82.26 63.69 73.36 63.68C64.45 63.69 57.8 63.73 53.37 63.96C53.16 63.97 52.98 64.09 52.86 64.27C52.74 64.45 52.71 64.68 52.77 64.9C52.81 65.04 52.85 65.18 52.9 65.32L70.26 67.06C70.38 67.08 70.51 67.11 70.62 67.16L72.44 68.24L72.44 68.24C72.53 68.29 72.63 68.31 72.73 68.31L73.36 68.31L73.31 68.31C73.42 68.31 74.33 68.33 74.42 68.28L74.49 68.24L76.31 67.16C76.43 67.11 76.55 67.08 76.67 67.06L94.04 65.32C94.08 65.18 94.12 65.04 94.16 64.9C94.22 64.68 94.19 64.45 94.07 64.27Z" />
				<path id="Path 31" class="shp7" d="M76.67 67.06C76.55 67.08 76.43 67.11 76.31 67.16L74.49 68.24C74.4 68.29 74.3 68.31 74.19 68.31L72.91 68.31L72.74 68.31C72.64 68.31 72.53 68.29 72.44 68.24L70.62 67.16C70.51 67.11 70.38 67.08 70.26 67.06L52.9 65.32C54.49 70.75 55.58 74.03 56.92 77.14C57.45 78.37 58.56 79.19 59.82 79.26C65.72 79.62 67.1 79.53 73.36 79.52C79.61 79.53 81.21 79.62 87.12 79.26C88.37 79.19 89.49 78.37 90.02 77.14C91.35 74.03 92.44 70.75 94.04 65.32L76.67 67.06Z" />
				<path id="Path 32" fill-rule="evenodd" class="shp5" d="M89.63 83.96C90.4 83.95 91.15 83.63 91.74 83.05C89.25 90.37 87.62 94.64 86.25 101.27C85.84 101.03 85.39 100.9 84.93 100.9M89.63 83.96L73.46 84.07L57.29 83.96M85.9 95.35C86.49 95.35 86.52 95.79 86.35 96.2M84.93 100.9L73.46 100.92L61.99 100.9M61.99 100.9C61.53 100.9 61.08 101.03 60.68 101.27C59.3 94.64 57.67 90.37 55.19 83.05C55.77 83.63 56.52 83.95 57.29 83.96M60.47 96.2C60.3 95.79 60.33 95.35 60.92 95.35M84.33 95.42L85.9 95.35M86.35 96.2L83.93 100.67M62.49 95.42L60.92 95.35M60.47 96.2L62.89 100.67" />
				<path id="Path 33" class="shp9" d="M40.94 85.37C40.94 85.28 40.97 85.19 41.03 85.13C41.09 85.07 41.18 85.03 41.26 85.04L49.81 85.66C50.29 85.7 50.72 86.02 50.91 86.5L52.71 91C52.78 91.16 52.76 91.35 52.66 91.49C52.56 91.63 52.4 91.71 52.23 91.69L42.14 90.77C41.59 90.72 41.16 90.24 41.13 89.66L40.94 85.37Z" />
				<path id="Path 34" class="shp9" d="M41.82 94.16L50.19 94.87L50.9 97.05C50.94 97.2 50.92 97.36 50.82 97.48C50.73 97.6 50.59 97.66 50.44 97.64L43.42 96.68C42.65 96.58 42.04 95.93 41.94 95.11L41.82 94.16Z" />
				<path id="Path 35" class="shp9" d="M105.88 85.37C105.88 85.28 105.85 85.19 105.79 85.13C105.72 85.07 105.64 85.03 105.55 85.04L97.01 85.66C96.52 85.7 96.1 86.02 95.9 86.5L94.1 91C94.04 91.16 94.06 91.35 94.16 91.49C94.26 91.63 94.42 91.71 94.58 91.69L104.68 90.77C105.23 90.72 105.66 90.24 105.68 89.66L105.88 85.37Z" />
				<path id="Path 36" class="shp9" d="M104.99 94.16L96.63 94.87L95.92 97.05C95.87 97.2 95.9 97.36 95.99 97.48C96.09 97.6 96.23 97.66 96.37 97.64L103.39 96.68C104.17 96.58 104.78 95.93 104.88 95.11L104.99 94.16Z" />
				<path id="Path 37" fill-rule="evenodd" class="shp5" d="M51.5 96.22C51.39 96.21 51.3 96.13 51.27 96.03M53.66 96.42C53.74 96.43 53.82 96.49 53.86 96.57C53.91 96.67 53.91 96.8 53.84 96.89C53.78 96.99 53.68 97.04 53.57 97.03M51.82 97.46C51.74 97.45 51.67 97.4 51.62 97.34C51.57 97.27 51.54 97.19 51.56 97.09C51.57 96.96 51.68 96.86 51.81 96.87M54.15 106.77C55.98 104.73 59.01 102.01 60.57 101.27M42.66 106.77C41.26 106.77 40.11 105.6 40.06 104.12M40.06 104.12L39.71 94.03L41.82 94.16L42.02 96.01M44.21 98.46C43.04 98.25 42.15 97.25 42.02 96.01M56.84 99.59C56.91 99.84 56.85 100.11 56.69 100.31C56.52 100.51 56.27 100.61 56.03 100.56M39.71 84.08C39.71 82.01 40.77 81.52 42.47 80.5M45.16 78.9C45.49 78.71 45.87 78.63 46.25 78.67M50.58 79.19C51.23 79.29 52.28 80.41 55.08 83.05M55.24 106.77L59.02 103.09L59.12 103.09L55.34 106.77L55.24 106.77ZM65.61 104.93C65.79 104.93 65.96 105.05 66.04 105.24M62.35 104.93C62.17 104.93 62.01 105.04 61.93 105.22M59.96 91.89C59.95 91.85 59.96 91.8 59.98 91.77C60 91.73 60.03 91.71 60.07 91.71M61.8 91.71C61.89 91.71 61.97 91.78 62 91.88M62.37 93.23C62.39 93.31 62.38 93.39 62.34 93.46C62.3 93.53 62.24 93.57 62.17 93.57M60.59 93.57C60.5 93.57 60.42 93.5 60.39 93.4M70.47 69.25C70.22 69.25 69.97 69.2 69.74 69.1M54.52 65.48L65.67 67.33L69.74 69.1M79.81 91.81L79.81 95.08L66.9 95.08L66.9 91.81L79.81 91.81ZM81.1 104.93C80.92 104.93 80.75 105.05 80.68 105.24M84.36 104.93C84.54 104.93 84.7 105.04 84.78 105.22M75.01 104.93C75.2 104.93 75.37 105.05 75.44 105.24M71.27 105.24C71.34 105.05 71.51 104.93 71.7 104.93M86.64 91.71C86.68 91.71 86.71 91.73 86.73 91.77C86.76 91.8 86.76 91.85 86.75 91.89M84.71 91.88C84.74 91.78 84.82 91.71 84.91 91.71M84.54 93.57C84.47 93.57 84.41 93.53 84.37 93.46C84.33 93.39 84.32 93.31 84.34 93.23M86.32 93.4C86.29 93.5 86.21 93.57 86.12 93.57M77.19 69.1C76.96 69.2 76.71 69.25 76.46 69.25M77.19 69.1L81.27 67.33L92.41 65.48M88.28 85.04C89.3 85.04 89.31 85.99 89.18 86.59M87.8 90.25C87.48 90.87 87.15 91.3 86.53 91.3M102.27 97.92C102.47 97.89 102.67 97.84 102.85 97.77C103.32 97.59 103.68 97.32 103.99 96.97C103.55 97.38 98.98 97.87 92.91 98.55C92.76 98.57 92.63 98.48 92.57 98.34C92.52 98.2 92.56 98.03 92.68 97.94C92.75 97.88 92.83 97.85 92.91 97.83L103.99 96.97C104.33 96.58 104.6 96.08 104.85 95.5M95.54 96.03C95.51 96.13 95.42 96.21 95.32 96.22M93.25 97.03C93.14 97.04 93.03 96.99 92.97 96.89C92.91 96.8 92.91 96.67 92.95 96.57C92.95 96.57 92.95 96.57 92.96 96.57C92.99 96.49 93.07 96.43 93.16 96.42M95.01 96.87C95.14 96.86 95.25 96.96 95.26 97.09C95.27 97.19 95.25 97.27 95.2 97.34C95.15 97.4 95.08 97.45 95 97.46M86.25 101.27C87.8 102.01 90.83 104.73 92.66 106.77M106.76 104.12C106.71 105.6 105.56 106.77 104.16 106.77M104.8 96.01L104.99 94.16L107.1 94.03L106.76 104.12M90.79 100.56C90.54 100.61 90.29 100.51 90.13 100.31C89.96 100.11 89.91 99.84 89.98 99.59M104.35 80.5C106.05 81.52 107.1 82.01 107.1 84.08M91.74 83.05C94.54 80.41 95.59 79.29 96.23 79.19M80.78 105.24C80.85 105.05 81.02 104.93 81.21 104.93M84.46 104.93C84.64 104.93 84.81 105.04 84.89 105.22M65.71 104.93C65.9 104.93 66.07 105.05 66.14 105.24M62.04 105.22C62.11 105.04 62.28 104.93 62.46 104.93M71.37 105.24C71.45 105.05 71.62 104.93 71.8 104.93M75.55 105.24C75.48 105.05 75.31 104.93 75.12 104.93M75.55 105.24L76.15 106.77L70.77 106.77L71.37 105.24M57.64 86.59C57.5 85.99 57.52 85.04 58.53 85.04M60.28 91.3C59.67 91.3 59.34 90.87 59.02 90.25M54.96 98.59C55.01 98.76 54.98 98.95 54.87 99.09C54.76 99.22 54.59 99.29 54.42 99.27M92.4 99.27C92.23 99.29 92.06 99.22 91.95 99.09C91.84 98.95 91.81 98.76 91.86 98.59M44.21 98.46L56.03 100.56M103.99 96.97L103.99 96.97L103.99 96.97ZM102.61 98.46L90.79 100.56M41.57 103.45L53.12 104.16M53.92 95.12L54.96 98.59M54.42 99.27L44.54 97.92M50.98 94.92L51.27 96.03M51.5 96.22L53.66 96.42M53.57 97.03L51.81 96.87M51.82 97.46L53.9 97.83M54.15 106.77L42.66 106.77M56.84 99.59L55.57 95.22M39.71 94.03L39.71 84.08M42.47 80.5L45.16 78.9M46.25 78.67L50.58 79.19M54.46 91.9L52.23 91.69M65.61 104.93L62.35 104.93M61.93 105.22L61.26 106.77M60.07 91.71L61.8 91.71M62 91.88L62.37 93.23M62.17 93.57L60.59 93.57M60.39 93.4L59.96 91.89M73.36 69.25L70.47 69.25M73.36 77.43L63.5 77.43L57.06 77.43M63.53 79.44L63.5 77.43M65.67 66.57L65.67 67.33M70.58 67.05L70.58 69.25M49.5 65.48L55.08 81.33M105.14 103.45L93.59 104.16M81.1 104.93L84.36 104.93M84.78 105.22L85.45 106.77M75.01 104.93L74.95 104.93L71.76 104.93L71.7 104.93M86.64 91.71L84.91 91.71M84.71 91.88L84.34 93.23M84.54 93.57L86.12 93.57M86.32 93.4L86.75 91.89M73.36 69.25L76.46 69.25M73.36 77.43L83.43 77.43L89.87 77.43M86.28 79.44L83.43 77.43M81.26 66.57L81.27 67.33M76.35 67.05L76.35 69.25M85.9 85.04L88.28 85.04M89.18 86.59L87.8 90.25M86.53 91.3L85.27 91.3M59.22 95.55L39.71 94.03M51.14 76.48L53.38 79.97M105.25 103.45L93.69 104.16M92.89 95.12L91.86 98.59M92.4 99.27L102.27 97.92M95.84 94.92L95.54 96.03M95.32 96.22L93.16 96.42M93.25 97.03L95.01 96.87M95 97.46L92.91 97.83M92.66 106.77L104.16 106.77M89.98 99.59L91.25 95.22M107.1 94.03L107.1 84.08M104.35 80.5L101.66 78.9M100.57 78.67L96.23 79.19M92.35 91.9L94.58 91.69M80.07 106.77L80.68 105.24M80.18 106.77L80.78 105.24M81.21 104.93L84.46 104.93M84.89 105.22L85.56 106.77M97.32 65.48L91.74 81.33M66.64 106.77L66.04 105.24M66.74 106.77L66.14 105.24M65.71 104.93L62.46 104.93M62.04 105.22L61.36 106.77M71.8 104.93L71.87 104.93L75.06 104.93L75.12 104.93M60.92 85.04L58.53 85.04M57.64 86.59L59.02 90.25M60.28 91.3L61.55 91.3M87.59 95.55L107.1 94.03M95.68 76.48L93.44 79.97" />
				<path id="Path 38" class="shp10" d="M43.24 34.52L103.74 34.52C103.79 31.71 103.3 28.56 102.42 25.19C100.32 22.15 45.41 22.68 44.42 25.33C43.68 28.48 43.24 31.56 43.24 34.52Z" />
				<path id="Path 39" class="shp3" d="M73.36 54.33L46.59 54.33C46.59 54.34 46.59 54.35 46.59 54.35L46.9 56.01C47.08 56.96 47.92 57.66 48.91 57.67L73.36 58.01L98.02 57.67C99.01 57.66 99.85 56.96 100.03 56.01L100.34 54.35C100.34 54.35 100.34 54.34 100.34 54.33L73.36 54.33Z" />
				<path id="Path 40" class="shp11" d="M100.79 34.5C95.97 34.25 86.07 34.44 73.34 34.25C60.6 34.44 50.92 34.25 46.11 34.5C45.85 40.71 46 47.13 46.57 54.45L73.34 54.45L100.32 54.45C100.9 47.13 101.04 40.71 100.79 34.5Z" />
				<path id="Path 41" fill-rule="evenodd" class="shp5" d="M49.24 30.56C49.38 30.56 49.5 30.34 49.5 30.07M46.5 30.07C46.5 30.34 46.61 30.56 46.75 30.56M46.75 28.44C46.61 28.44 46.5 28.66 46.5 28.94M49.5 28.94C49.5 28.66 49.38 28.44 49.24 28.44M49.24 30.56L46.75 30.56M46.5 30.07L46.5 28.94M46.75 28.44L49.24 28.44M49.5 28.94L49.5 30.07" />
				<path id="Path 42" fill-rule="evenodd" class="shp12" d="M57.45 55.5C57.45 55.34 57.59 55.21 57.75 55.21M61.06 55.21C61.06 55.07 61.17 54.96 61.32 54.96M64.17 54.96C64.31 54.96 64.43 55.07 64.43 55.21M64.86 55.16C64.82 55.19 64.76 55.21 64.7 55.21M64.87 55.15C64.92 55.11 64.98 55.09 65.04 55.09M66.57 55.09C66.71 55.09 66.82 55.2 66.82 55.34M66.82 56.37C66.82 56.51 66.71 56.62 66.57 56.62M65.1 56.62C65.05 56.62 65.01 56.6 64.98 56.56M64.6 56.58C64.63 56.5 64.7 56.45 64.78 56.45C64.87 56.44 64.94 56.48 64.98 56.55M64.6 56.59C64.47 56.93 64.13 57.15 63.76 57.15M61.37 57.15C61.28 57.15 61.21 57.1 61.17 57.03M60.51 56.59C60.53 56.63 60.57 56.66 60.62 56.67C60.66 56.69 60.71 56.68 60.75 56.65C60.8 56.62 60.86 56.61 60.92 56.63C60.98 56.65 61.03 56.69 61.05 56.75M60.19 56.17C60.25 56.17 60.3 56.2 60.33 56.26M58.62 56.26C58.65 56.21 58.71 56.17 58.77 56.17M58.48 56.56C58.45 56.61 58.39 56.65 58.33 56.65M57.62 56.65C57.53 56.65 57.45 56.58 57.45 56.49M58.3 55.88C58.3 55.79 58.38 55.72 58.47 55.72M65.89 55.72C65.98 55.72 66.05 55.79 66.05 55.88M66.05 56.01C66.05 56.1 65.98 56.17 65.89 56.17M58.47 56.17C58.38 56.17 58.3 56.1 58.3 56.01M57.75 55.21L61.06 55.21M61.32 54.96L64.17 54.96M64.43 55.21L64.7 55.21M64.86 55.16L64.87 55.15M65.04 55.09L66.57 55.09M66.82 55.34L66.82 56.37M66.57 56.62L65.1 56.62M64.98 56.56L64.98 56.55M64.6 56.58L64.6 56.59M63.76 57.15L61.37 57.15M61.17 57.03L61.05 56.75M60.51 56.59L60.33 56.26M65.89 56.17L58.47 56.17M58.62 56.26L58.48 56.56M58.33 56.65L57.62 56.65M57.45 56.49L57.45 55.5M58.47 55.72L65.89 55.72M66.05 55.88L66.05 56.01M60.19 56.17L58.77 56.17M58.3 56.01L58.3 55.88" />
				<path id="Path 43" fill-rule="evenodd" class="shp5" d="M97.69 30.56C97.55 30.56 97.43 30.34 97.43 30.07M100.43 30.07C100.43 30.34 100.32 30.56 100.18 30.56M100.18 28.44C100.32 28.44 100.43 28.66 100.43 28.94M97.43 28.94C97.43 28.66 97.55 28.44 97.69 28.44M103.54 60.88L103.53 60.88L103.54 60.87L103.54 60.88ZM97.69 30.56L100.18 30.56M100.43 30.07L100.43 28.94M100.18 28.44L97.69 28.44M97.43 28.94L97.43 30.07" />
				<path id="Path 44" fill-rule="evenodd" class="shp12" d="M89.18 55.21C89.35 55.21 89.48 55.34 89.48 55.5M85.62 54.96C85.76 54.96 85.87 55.07 85.87 55.21M82.5 55.21C82.5 55.07 82.62 54.96 82.76 54.96M82.24 55.21C82.18 55.21 82.12 55.19 82.07 55.16M81.89 55.09C81.95 55.09 82.01 55.11 82.06 55.15M80.11 55.34C80.11 55.2 80.22 55.09 80.37 55.09M80.37 56.62C80.22 56.62 80.11 56.51 80.11 56.37M81.95 56.56C81.93 56.6 81.88 56.62 81.83 56.62M81.95 56.55C81.99 56.48 82.07 56.44 82.15 56.45C82.23 56.45 82.3 56.5 82.33 56.58M83.17 57.15C82.8 57.15 82.47 56.93 82.33 56.59M85.76 57.03C85.73 57.1 85.65 57.15 85.57 57.15M85.88 56.75C85.9 56.69 85.95 56.65 86.01 56.63C86.07 56.61 86.13 56.62 86.19 56.65C86.22 56.68 86.27 56.69 86.32 56.67C86.36 56.66 86.4 56.63 86.42 56.59M86.6 56.26C86.63 56.2 86.69 56.17 86.75 56.17M88.16 56.17C88.23 56.17 88.29 56.21 88.31 56.26M88.6 56.65C88.54 56.65 88.48 56.61 88.46 56.56M89.48 56.49C89.48 56.58 89.4 56.65 89.31 56.65M88.46 55.72C88.55 55.72 88.63 55.79 88.63 55.88M80.88 55.88C80.88 55.79 80.95 55.72 81.05 55.72M81.05 56.17C80.95 56.17 80.88 56.1 80.88 56.01M88.63 56.01C88.63 56.1 88.55 56.17 88.46 56.17M89.18 55.21L85.87 55.21M85.62 54.96L82.76 54.96M82.5 55.21L82.24 55.21M82.07 55.16L82.06 55.15M81.89 55.09L80.37 55.09M80.11 55.34L80.11 56.37M80.37 56.62L81.83 56.62M81.95 56.56L81.95 56.55M82.33 56.58L82.33 56.59M83.17 57.15L85.57 57.15M85.76 57.03L85.88 56.75M86.42 56.59L86.6 56.26M81.05 56.17L88.46 56.17M88.31 56.26L88.46 56.56M88.6 56.65L89.31 56.65M89.48 56.49L89.48 55.5M88.46 55.72L81.05 55.72M80.88 55.88L80.88 56.01M86.75 56.17L88.16 56.17M88.63 56.01L88.63 55.88" />
				<path id="Path 45" class="shp5" d="M103.39 62.17L103.21 62.17L103.21 61.21L103.43 60.87L103.43 58.65" />
				<path id="Path 46" class="shp7" d="M40.44 36.81L39.98 54.34C39.96 54.84 39.59 55.24 39.13 55.24L36.01 54.94L35.68 54.9L35.35 54.84C34.76 54.74 34.32 54.17 34.34 53.52L34.64 38.28C34.65 37.45 35.13 36.7 35.85 36.41L36.58 36.11L39.59 35.67C40.09 35.77 40.46 36.25 40.44 36.81Z" />
				<path id="Path 47" class="shp3" d="M45.21 56.6L45.22 57.41C45.22 57.62 45.13 57.83 44.98 57.97C44.83 58.11 44.62 58.17 44.42 58.13L41.76 57.66C41.44 57.61 41.2 57.31 41.19 56.96L41.15 54.91C41.15 54.8 41.09 54.71 40.99 54.67L35.97 52.82C35.8 52.76 35.68 52.59 35.68 52.39L36.01 52.42L39.13 52.72L43.48 53.92C43.7 53.98 43.85 54.2 43.84 54.45L44.78 55.48C45.05 55.78 45.2 56.18 45.21 56.6Z" />
				<path id="Path 48" class="shp3" d="M49.29 34.22C48.33 36.06 46.96 37.19 44.16 38.22C43.87 38.32 43.56 38.19 43.42 37.91L42.66 36.4C42.45 35.98 42.53 35.47 42.85 35.14C43.26 34.72 43.7 34.37 44.38 33.87L43.92 33.39C43.85 33.32 43.76 33.28 43.66 33.29L39.59 35.67L36.58 36.11C36.57 35.82 36.72 33.7 36.97 33.57C38.69 32.7 40.07 32.22 42.24 32.01L42.25 31.23C42.25 31.14 42.29 31.06 42.35 31C42.84 30.53 43.44 30.33 44.46 30.19C44.49 30.18 44.53 30.19 44.55 30.21C44.57 30.24 44.58 30.27 44.58 30.3L44.58 31.53L44.83 31.13C44.89 31.04 44.98 30.98 45.09 30.98L45.36 30.98C45.45 30.98 45.54 31.02 45.6 31.09C45.66 31.16 45.68 31.26 45.67 31.36L45.41 33L47.6 31.86C47.96 31.68 48.38 31.7 48.72 31.92C49.46 32.41 49.71 33.42 49.29 34.22Z" />
				<path id="Path 49" fill-rule="evenodd" class="shp5" d="M44.58 31.53L43.95 32.83L43.95 31.63L42.25 31.63L43.45 32.89L36.74 33.76M43.45 32.89L43.95 32.83L43.95 33.42L43.45 32.89ZM36.46 52.64C38.35 52.99 39.7 53.41 41.69 54.1L41.86 53.81C41.87 53.93 41.85 54.04 41.81 54.15L41.82 54.15M41.81 54.15C41.75 54.29 41.63 54.41 41.48 54.47L41.69 54.1C41.73 54.12 41.77 54.13 41.81 54.15ZM42.42 54.38C42.25 54.41 42.13 54.57 42.13 54.75C42.13 54.92 41.99 55.06 41.83 55.06M43.1 55.24C43.1 55.03 43.2 54.84 43.36 54.72M45.41 33L44.38 33.87M41.82 53.46L41.86 53.81M41.48 54.47L40.99 54.68M43.77 54.15L42.42 54.38M41.83 55.06L41.15 55.06M43.84 54.36L43.36 54.72M43.1 55.24L43.1 57.9" />
				<path id="Path 50" class="shp7" d="M106.49 36.81L106.96 54.34C106.97 54.84 107.35 55.24 107.8 55.24L110.92 54.94L111.25 54.9L111.58 54.84C112.18 54.74 112.61 54.17 112.6 53.52L112.3 38.28C112.28 37.45 111.8 36.7 111.09 36.41L110.35 36.11L107.34 35.67C106.84 35.77 106.48 36.25 106.49 36.81Z" />
				<path id="Path 51" class="shp3" d="M101.72 56.6L101.71 57.41C101.71 57.62 101.8 57.83 101.95 57.97C102.11 58.11 102.31 58.17 102.51 58.13L105.17 57.66C105.5 57.61 105.74 57.31 105.74 56.96L105.78 54.91C105.78 54.8 105.85 54.71 105.94 54.67L110.96 52.82C111.14 52.76 111.25 52.59 111.25 52.39L110.92 52.42L107.8 52.72L103.46 53.92C103.23 53.98 103.08 54.2 103.1 54.45L102.16 55.48C101.88 55.78 101.73 56.18 101.72 56.6Z" />
				<path id="Path 52" class="shp3" d="M97.64 34.22C98.61 36.06 99.98 37.19 102.77 38.22C103.06 38.32 103.38 38.19 103.52 37.91L104.27 36.4C104.48 35.98 104.4 35.47 104.08 35.14C103.67 34.72 103.23 34.37 102.55 33.87L103.01 33.39C103.08 33.32 103.18 33.28 103.27 33.29L107.34 35.67L110.35 36.11C110.36 35.82 110.21 33.7 109.97 33.57C108.25 32.7 106.86 32.22 104.69 32.01L104.68 31.23C104.68 31.14 104.64 31.06 104.58 31C104.1 30.53 103.49 30.33 102.47 30.19C102.44 30.18 102.41 30.19 102.38 30.21C102.36 30.24 102.35 30.27 102.35 30.3L102.35 31.53L102.1 31.13C102.05 31.04 101.95 30.98 101.85 30.98L101.57 30.98C101.48 30.98 101.39 31.02 101.33 31.09C101.27 31.16 101.25 31.26 101.26 31.36L101.52 33L99.33 31.86C98.97 31.68 98.55 31.7 98.21 31.92C97.47 32.41 97.22 33.42 97.64 34.22Z" />
				<path id="Path 53" fill-rule="evenodd" class="shp5" d="M110.19 33.76L103.48 32.89L104.68 31.63L102.98 31.63L102.98 32.83L102.35 31.53M103.48 32.89L102.98 33.42L102.98 32.83L103.48 32.89ZM105.11 54.15L105.12 54.15C105.19 54.29 105.3 54.41 105.45 54.47L105.24 54.1C107.23 53.41 108.59 52.99 110.47 52.64M105.24 54.1C105.2 54.12 105.16 54.13 105.12 54.15C105.08 54.04 105.06 53.93 105.07 53.81L105.24 54.1ZM105.1 55.06C104.94 55.06 104.81 54.92 104.81 54.75C104.81 54.57 104.68 54.41 104.51 54.38M103.58 54.72C103.73 54.84 103.83 55.03 103.83 55.24M101.52 33L102.55 33.87M105.11 53.46L105.07 53.81M105.45 54.47L105.94 54.68M103.17 54.15L104.51 54.38M105.1 55.06L105.78 55.06M103.1 54.36L103.58 54.72M103.83 55.24L103.83 57.9" />
				<path id="Path 54" fill-rule="evenodd" class="shp13" d="M52.82 61.75C53.04 61.87 53.29 61.97 53.55 62.04C53.74 62.08 53.97 62.13 54.18 62.08C54.28 62.06 54.36 62 54.35 61.91C54.33 61.81 54.23 61.74 54.11 61.7L54.03 61.66L53.61 61.49C53.41 61.41 53.23 61.31 53.09 61.17C52.96 61.04 52.89 60.88 52.84 60.72C52.78 60.46 52.8 60.21 52.94 59.97C53.07 59.74 53.31 59.57 53.59 59.45C53.96 59.31 54.37 59.27 54.77 59.31C55.24 59.37 55.67 59.52 56.04 59.74L56.04 60.94C55.76 60.69 55.41 60.43 54.97 60.38C54.84 60.37 54.67 60.39 54.62 60.49C54.59 60.6 54.7 60.69 54.81 60.74L54.88 60.77L55.44 61.02C55.74 61.16 56.03 61.32 56.19 61.56C56.37 61.84 56.38 62.14 56.23 62.42C56.06 62.7 55.76 62.91 55.38 63.03C54.54 63.28 53.62 63.17 52.82 62.88L52.82 61.75ZM60.9 62.8C60.41 63.01 59.9 63.12 59.34 63.14C58.61 63.17 57.89 63.01 57.33 62.65C56.78 62.28 56.48 61.76 56.46 61.21C56.46 60.85 56.58 60.51 56.83 60.2C57.09 59.91 57.44 59.68 57.86 59.53C58.81 59.21 59.92 59.3 60.84 59.65L60.84 60.86L60.6 60.74C60.26 60.58 59.87 60.47 59.45 60.46C59.24 60.47 59.02 60.5 58.84 60.58C58.33 60.84 58.21 61.44 58.67 61.76C58.92 61.93 59.22 62.02 59.56 62.02C59.97 62.01 60.34 61.88 60.67 61.73L60.9 61.63L60.9 62.8ZM61.38 59.43L63.22 59.43L63.22 60.73L64.78 60.73L64.78 59.43L66.62 59.43L66.62 63.05L64.78 63.05L64.78 61.74L63.22 61.74L63.22 63.05L61.38 63.05L61.38 59.43ZM67.51 58.76C67.52 58.56 67.73 58.41 67.99 58.41C68.26 58.41 68.48 58.57 68.48 58.77C68.47 58.97 68.26 59.13 68 59.13L67.99 59.13C67.72 59.13 67.51 58.97 67.51 58.76ZM70.95 58.76C70.96 58.56 71.16 58.41 71.43 58.41C71.7 58.41 71.91 58.57 71.92 58.77C71.91 58.97 71.7 59.13 71.43 59.13C71.16 59.13 70.95 58.97 70.95 58.76ZM68.94 59.41L68.94 61.41C68.95 61.73 69.25 62.04 69.71 62.05C70.17 62.04 70.48 61.74 70.49 61.41L70.49 59.41L72.33 59.41L72.33 61.41C72.32 61.8 72.19 62.18 71.88 62.49C71.56 62.8 71.1 62.98 70.6 63.06C69.76 63.19 68.83 63.19 68.08 62.85C67.78 62.7 67.53 62.51 67.36 62.27C67.18 62 67.11 61.71 67.1 61.41L67.1 59.41L68.94 59.41ZM72.81 59.43L74.48 59.43L75.64 60.7L76.79 59.43L78.46 59.43L78.46 63.05L76.63 63.05L76.63 61.4L75.64 62.5L74.65 61.4L74.65 63.05L72.81 63.05L72.81 59.43ZM78.95 59.43L80.62 59.43L81.78 60.7L82.93 59.43L84.6 59.43L84.6 63.05L82.77 63.05L82.77 61.4L81.78 62.5L80.79 61.4L80.79 63.05L78.95 63.05L78.95 59.43ZM85.09 59.43L88.53 59.43L88.53 60.3L86.93 60.3L86.93 60.77L88.42 60.77L88.42 61.64L86.93 61.64L86.93 62.18L88.64 62.18L88.64 63.05L85.09 63.05L85.09 59.43ZM89.12 59.43L91.67 59.43C91.99 59.43 92.31 59.45 92.61 59.54C92.87 59.62 93.08 59.75 93.24 59.92C93.39 60.1 93.46 60.3 93.46 60.51C93.45 60.67 93.4 60.83 93.3 60.98C93.19 61.12 93.03 61.23 92.85 61.31C93.09 61.45 93.24 61.66 93.36 61.86L94.09 63.05L92.18 63.05L91.6 61.95C91.48 61.75 91.26 61.59 90.96 61.58L90.96 63.05L89.12 63.05L89.12 59.43ZM91.13 60.87C91.28 60.87 91.44 60.85 91.56 60.77C91.66 60.7 91.7 60.6 91.7 60.5C91.69 60.27 91.41 60.16 91.13 60.16L90.96 60.16L90.96 60.87L91.13 60.87Z" />
				<path id="Path 55" fill-rule="evenodd" class="shp14" d="M66.02 28.31L66.34 28.31L66.34 28.47C66.41 28.32 66.56 28.26 66.69 28.27C66.83 28.29 66.97 28.37 67.03 28.54C67.11 28.36 67.27 28.27 67.42 28.27C67.5 28.27 67.58 28.29 67.65 28.35C67.71 28.4 67.75 28.48 67.79 28.58C67.81 28.64 67.82 28.72 67.82 28.79L67.82 29.92L67.5 29.92L67.5 28.92C67.5 28.77 67.42 28.62 67.29 28.62C67.16 28.62 67.09 28.77 67.08 28.92L67.08 29.92L66.76 29.92L66.76 28.92C66.76 28.77 66.68 28.62 66.55 28.62C66.43 28.62 66.35 28.77 66.34 28.92L66.34 29.92L66.02 29.92L66.02 28.31ZM68.07 28.31L68.39 28.31L68.39 28.47C68.46 28.32 68.61 28.26 68.74 28.27C68.88 28.29 69.02 28.37 69.08 28.54C69.16 28.36 69.32 28.27 69.47 28.27C69.55 28.27 69.63 28.29 69.69 28.35C69.76 28.4 69.8 28.48 69.83 28.58C69.86 28.64 69.87 28.72 69.87 28.79L69.87 29.92L69.55 29.92L69.55 28.92C69.55 28.77 69.47 28.62 69.34 28.62C69.21 28.62 69.13 28.77 69.13 28.92L69.13 29.92L68.81 29.92L68.81 28.92C68.81 28.77 68.73 28.62 68.6 28.62C68.47 28.62 68.39 28.77 68.39 28.92L68.39 29.92L68.07 29.92L68.07 28.31ZM53.76 29.92L53.47 29.92L53.09 28.31L53.42 28.31L53.63 29.35L53.85 28.31L54.13 28.31L54.35 29.35L54.56 28.31L54.87 28.31L54.51 29.92L54.22 29.92L53.98 28.84L53.76 29.92ZM55.67 29.92L55.38 29.92L55 28.31L55.32 28.31L55.54 29.35L55.75 28.31L56.03 28.31L56.25 29.35L56.46 28.31L56.78 28.31L56.42 29.92L56.13 29.92L55.89 28.84L55.67 29.92ZM57.57 29.92L57.28 29.92L56.9 28.31L57.23 28.31L57.44 29.35L57.66 28.31L57.94 28.31L58.16 29.35L58.37 28.31L58.68 28.31L58.32 29.92L58.03 29.92L57.79 28.84L57.57 29.92ZM84.34 29.96C84.19 29.96 84.06 29.86 83.96 29.71C83.86 29.54 83.81 29.33 83.81 29.12C83.81 28.9 83.86 28.69 83.96 28.52C84.05 28.36 84.19 28.27 84.34 28.27C84.48 28.27 84.6 28.35 84.7 28.48L84.7 27.74L85.02 27.74L85.02 29.92L84.7 29.92L84.7 29.75C84.6 29.87 84.48 29.96 84.34 29.96ZM84.63 29.49C84.69 29.38 84.71 29.25 84.72 29.12C84.71 28.99 84.69 28.86 84.63 28.75C84.58 28.67 84.51 28.61 84.42 28.6C84.34 28.61 84.26 28.66 84.21 28.75C84.15 28.86 84.13 28.99 84.13 29.12C84.13 29.25 84.15 29.38 84.21 29.48C84.26 29.57 84.34 29.63 84.42 29.63C84.51 29.63 84.58 29.57 84.63 29.49ZM91.77 29.96C91.62 29.96 91.48 29.86 91.39 29.71C91.29 29.54 91.24 29.33 91.24 29.12C91.24 28.9 91.29 28.69 91.39 28.52C91.48 28.36 91.62 28.27 91.77 28.27C91.91 28.27 92.03 28.35 92.13 28.48L92.13 27.74L92.45 27.74L92.45 29.92L92.13 29.92L92.13 29.75C92.03 29.87 91.91 29.96 91.77 29.96ZM92.06 29.49C92.12 29.38 92.14 29.25 92.15 29.12C92.14 28.99 92.12 28.86 92.06 28.75C92.01 28.67 91.94 28.61 91.85 28.6C91.76 28.61 91.69 28.66 91.64 28.75C91.58 28.86 91.56 28.99 91.56 29.12C91.56 29.25 91.58 29.38 91.64 29.48C91.69 29.57 91.76 29.63 91.85 29.63C91.94 29.63 92.01 29.57 92.06 29.49ZM61.94 27.74L62.26 27.74L62.26 28.53C62.34 28.36 62.47 28.27 62.62 28.27C62.7 28.27 62.79 28.3 62.86 28.36C62.93 28.43 62.99 28.52 63.02 28.62C63.04 28.71 63.05 28.81 63.05 28.9L63.05 29.92L62.73 29.92L62.73 28.97C62.73 28.8 62.64 28.63 62.5 28.62C62.36 28.63 62.27 28.8 62.26 28.97L62.26 29.92L61.94 29.92L61.94 27.74ZM74.86 29.72C74.74 29.56 74.68 29.34 74.68 29.12C74.68 28.89 74.73 28.68 74.85 28.51C74.97 28.35 75.13 28.27 75.3 28.27C75.47 28.27 75.63 28.35 75.75 28.51C75.87 28.67 75.93 28.89 75.93 29.12C75.93 29.34 75.87 29.55 75.75 29.72C75.63 29.88 75.47 29.96 75.3 29.96C75.14 29.96 74.98 29.88 74.86 29.72ZM75.53 29.52C75.6 29.4 75.62 29.25 75.62 29.12C75.61 28.98 75.6 28.83 75.54 28.72C75.48 28.62 75.4 28.58 75.3 28.58C75.21 28.58 75.13 28.62 75.08 28.71C75.01 28.83 74.99 28.98 74.99 29.12C74.99 29.25 75.01 29.4 75.07 29.51C75.13 29.61 75.21 29.65 75.3 29.65C75.39 29.65 75.48 29.61 75.53 29.52ZM81.9 29.23C81.9 29.34 81.94 29.44 82 29.52C82.06 29.59 82.14 29.62 82.22 29.62C82.32 29.62 82.42 29.54 82.46 29.43L82.78 29.43C82.71 29.73 82.48 29.95 82.23 29.96C82.05 29.96 81.89 29.88 81.76 29.71C81.64 29.54 81.58 29.33 81.58 29.1C81.58 28.88 81.63 28.67 81.75 28.5C81.87 28.35 82.02 28.28 82.19 28.27C82.36 28.27 82.51 28.37 82.62 28.54C82.74 28.73 82.79 28.98 82.79 29.23L81.9 29.23ZM82.19 28.58C82.04 28.59 81.91 28.74 81.9 28.95L82.45 28.95C82.46 28.75 82.35 28.59 82.19 28.58ZM92.98 29.23C92.98 29.34 93.02 29.44 93.08 29.52C93.14 29.59 93.22 29.62 93.3 29.62C93.4 29.62 93.49 29.54 93.53 29.43L93.86 29.43C93.78 29.73 93.56 29.95 93.31 29.96C93.13 29.96 92.97 29.88 92.84 29.71C92.72 29.54 92.66 29.33 92.66 29.1C92.66 28.88 92.71 28.67 92.83 28.5C92.95 28.35 93.1 28.28 93.27 28.27C93.44 28.27 93.59 28.37 93.7 28.54C93.82 28.73 93.87 28.98 93.86 29.23L92.98 29.23ZM93.27 28.58C93.12 28.59 92.98 28.74 92.98 28.95L93.53 28.95C93.54 28.75 93.42 28.59 93.27 28.58ZM64.93 29.23C64.93 29.34 64.97 29.44 65.03 29.52C65.09 29.59 65.17 29.62 65.25 29.62C65.35 29.62 65.44 29.54 65.49 29.43L65.81 29.43C65.73 29.73 65.51 29.95 65.26 29.96C65.08 29.96 64.92 29.88 64.79 29.71C64.67 29.54 64.61 29.33 64.61 29.1C64.61 28.88 64.66 28.67 64.78 28.5C64.9 28.35 65.05 28.28 65.22 28.27C65.39 28.27 65.54 28.37 65.65 28.54C65.77 28.73 65.82 28.98 65.81 29.23L64.93 29.23ZM65.22 28.58C65.07 28.59 64.93 28.74 64.93 28.95L65.48 28.95C65.49 28.75 65.38 28.59 65.22 28.58ZM70.4 29.23C70.4 29.34 70.44 29.44 70.5 29.52C70.56 29.59 70.64 29.62 70.72 29.62C70.82 29.62 70.91 29.54 70.95 29.43L71.28 29.43C71.2 29.73 70.98 29.95 70.73 29.96C70.55 29.96 70.39 29.88 70.26 29.71C70.14 29.54 70.08 29.33 70.08 29.1C70.08 28.88 70.13 28.67 70.25 28.5C70.37 28.35 70.52 28.28 70.68 28.27C70.86 28.27 71.01 28.37 71.12 28.54C71.24 28.73 71.29 28.98 71.28 29.23L70.4 29.23ZM70.69 28.58C70.54 28.59 70.4 28.74 70.4 28.95L70.95 28.95C70.96 28.75 70.84 28.59 70.69 28.58ZM86.12 29.23C86.12 29.34 86.16 29.44 86.22 29.52C86.28 29.59 86.36 29.62 86.44 29.62C86.54 29.62 86.64 29.54 86.68 29.43L87 29.43C86.93 29.73 86.7 29.95 86.45 29.96C86.28 29.96 86.11 29.88 85.98 29.71C85.86 29.54 85.8 29.33 85.8 29.1C85.8 28.88 85.86 28.67 85.97 28.5C86.09 28.35 86.24 28.28 86.41 28.27C86.58 28.27 86.73 28.37 86.84 28.54C86.96 28.73 87.01 28.98 87.01 29.23L86.12 29.23ZM86.41 28.58C86.26 28.59 86.12 28.74 86.12 28.95L86.67 28.95C86.68 28.75 86.57 28.59 86.41 28.58ZM79.17 29.92L79.14 29.77C79.04 29.89 78.91 29.96 78.78 29.96C78.66 29.96 78.54 29.91 78.44 29.82C78.36 29.74 78.31 29.62 78.31 29.48C78.31 29.38 78.33 29.29 78.37 29.21C78.42 29.13 78.49 29.07 78.56 29.02C78.63 28.99 78.7 28.96 78.77 28.95L78.94 28.92C79 28.91 79.06 28.9 79.1 28.83C79.12 28.81 79.12 28.79 79.12 28.76C79.12 28.62 79 28.56 78.91 28.56C78.85 28.56 78.79 28.57 78.74 28.62C78.7 28.67 78.68 28.73 78.68 28.79L78.38 28.79C78.39 28.64 78.42 28.49 78.52 28.39C78.63 28.29 78.77 28.27 78.9 28.27C79.01 28.27 79.13 28.28 79.23 28.33C79.31 28.38 79.36 28.45 79.4 28.55C79.43 28.64 79.44 28.74 79.44 28.84L79.44 29.65C79.44 29.75 79.45 29.83 79.48 29.92L79.17 29.92ZM79.01 29.16L78.95 29.18C78.86 29.2 78.77 29.23 78.7 29.29C78.66 29.33 78.63 29.38 78.63 29.45C78.63 29.6 78.75 29.66 78.85 29.66C78.95 29.66 79.06 29.61 79.11 29.49C79.13 29.44 79.14 29.39 79.14 29.34L79.14 29.09C79.1 29.12 79.06 29.14 79.01 29.16ZM74.35 29.8C74.24 29.91 74.11 29.96 73.98 29.96C73.81 29.96 73.65 29.88 73.54 29.73C73.41 29.56 73.36 29.34 73.36 29.12C73.36 28.89 73.41 28.68 73.52 28.51C73.64 28.35 73.79 28.27 73.96 28.27C74.09 28.27 74.21 28.31 74.31 28.42C74.42 28.53 74.47 28.68 74.5 28.85L74.2 28.85C74.18 28.69 74.07 28.59 73.95 28.59C73.87 28.59 73.8 28.65 73.75 28.74C73.7 28.85 73.68 29 73.68 29.13C73.68 29.3 73.71 29.49 73.83 29.59C73.87 29.62 73.92 29.63 73.97 29.63C74.09 29.63 74.2 29.51 74.22 29.36L74.51 29.36C74.49 29.53 74.44 29.68 74.35 29.8ZM61.57 29.8C61.47 29.91 61.34 29.96 61.21 29.96C61.04 29.96 60.88 29.88 60.76 29.73C60.64 29.56 60.59 29.34 60.58 29.12C60.59 28.89 60.64 28.68 60.75 28.51C60.86 28.35 61.02 28.27 61.19 28.27C61.31 28.27 61.44 28.31 61.54 28.42C61.64 28.53 61.7 28.68 61.73 28.85L61.43 28.85C61.41 28.69 61.3 28.59 61.18 28.59C61.09 28.59 61.03 28.65 60.98 28.74C60.92 28.85 60.91 29 60.9 29.13C60.9 29.3 60.94 29.49 61.05 29.59C61.1 29.62 61.14 29.63 61.19 29.63C61.31 29.63 61.42 29.51 61.44 29.36L61.73 29.36C61.72 29.53 61.67 29.68 61.57 29.8ZM80.26 28.31L80.58 28.31L80.58 28.53C80.66 28.37 80.79 28.27 80.93 28.27C81.1 28.27 81.26 28.39 81.33 28.6C81.36 28.69 81.37 28.8 81.37 28.9L81.37 29.92L81.05 29.92L81.05 28.97C81.05 28.8 80.96 28.63 80.82 28.62C80.67 28.63 80.58 28.8 80.58 28.97L80.58 29.92L80.26 29.92L80.26 28.31ZM76.14 28.31L76.46 28.31L76.46 28.53C76.54 28.37 76.67 28.27 76.81 28.27C76.98 28.27 77.14 28.39 77.21 28.6C77.24 28.69 77.25 28.8 77.25 28.9L77.25 29.92L76.93 29.92L76.93 28.97C76.93 28.8 76.84 28.63 76.69 28.62C76.55 28.63 76.46 28.8 76.46 28.97L76.46 29.92L76.14 29.92L76.14 28.31ZM87.22 28.31L87.53 28.31L87.53 28.53C87.61 28.37 87.74 28.27 87.89 28.27C88.06 28.27 88.21 28.39 88.28 28.6C88.31 28.69 88.32 28.8 88.32 28.9L88.32 29.92L88 29.92L88 28.97C88 28.8 87.91 28.63 87.77 28.62C87.63 28.63 87.54 28.8 87.53 28.97L87.53 29.92L87.22 29.92L87.22 28.31ZM89.29 28.79C89.28 28.63 89.16 28.55 89.05 28.54C88.97 28.55 88.84 28.59 88.84 28.73C88.84 28.84 88.94 28.88 89.01 28.9L89.26 28.96C89.4 28.99 89.53 29.07 89.58 29.25C89.6 29.31 89.6 29.38 89.6 29.44C89.6 29.59 89.55 29.72 89.46 29.82C89.36 29.92 89.23 29.96 89.1 29.96C88.96 29.96 88.82 29.92 88.71 29.81C88.6 29.7 88.55 29.56 88.53 29.39L88.82 29.39C88.82 29.47 88.85 29.55 88.9 29.6C88.96 29.65 89.02 29.67 89.09 29.67C89.19 29.67 89.31 29.61 89.31 29.46C89.31 29.37 89.24 29.32 89.18 29.3L88.91 29.23C88.74 29.19 88.56 29.03 88.56 28.79C88.56 28.68 88.58 28.57 88.63 28.48C88.68 28.4 88.76 28.34 88.84 28.31C88.91 28.28 88.98 28.27 89.05 28.27C89.18 28.27 89.31 28.31 89.41 28.41C89.5 28.51 89.55 28.64 89.56 28.79L89.29 28.79ZM60.1 28.79C60.09 28.63 59.98 28.55 59.87 28.54C59.78 28.55 59.66 28.59 59.65 28.73C59.66 28.84 59.75 28.88 59.82 28.9L60.07 28.96C60.21 28.99 60.34 29.07 60.39 29.25C60.41 29.31 60.42 29.38 60.42 29.44C60.42 29.59 60.36 29.72 60.27 29.82C60.17 29.92 60.04 29.96 59.91 29.96C59.77 29.96 59.63 29.92 59.52 29.81C59.42 29.7 59.36 29.56 59.35 29.39L59.63 29.39C59.64 29.47 59.66 29.55 59.72 29.6C59.77 29.65 59.84 29.67 59.91 29.67C60 29.67 60.12 29.61 60.13 29.46C60.12 29.37 60.06 29.32 59.99 29.3L59.72 29.23C59.55 29.19 59.38 29.03 59.37 28.79C59.37 28.68 59.39 28.57 59.44 28.48C59.5 28.4 59.57 28.34 59.66 28.31C59.72 28.28 59.8 28.27 59.87 28.27C59.99 28.27 60.12 28.31 60.23 28.41C60.32 28.51 60.36 28.64 60.37 28.79L60.1 28.79ZM64.09 29.7C64.01 29.85 63.89 29.96 63.74 29.96C63.66 29.96 63.58 29.94 63.51 29.89C63.45 29.84 63.4 29.77 63.36 29.68C63.32 29.57 63.31 29.45 63.3 29.33L63.3 28.32L63.61 28.32L63.61 29.26C63.62 29.35 63.63 29.45 63.67 29.52C63.72 29.58 63.78 29.61 63.84 29.61C63.93 29.61 64.02 29.54 64.06 29.44C64.08 29.37 64.09 29.29 64.09 29.22L64.09 28.32L64.4 28.32L64.4 29.92L64.09 29.92L64.09 29.7ZM77.9 29.44C77.9 29.49 77.91 29.53 77.94 29.57C77.97 29.6 78.01 29.61 78.05 29.61L78.14 29.61L78.14 29.92L77.89 29.92C77.81 29.92 77.73 29.89 77.67 29.82C77.61 29.75 77.59 29.65 77.58 29.55L77.58 28.6L77.42 28.6L77.42 28.31L77.58 28.31L77.58 27.77L77.9 27.77L77.9 28.31L78.13 28.31L78.13 28.6L77.9 28.6L77.9 29.44ZM90.17 29.44C90.18 29.49 90.18 29.53 90.21 29.57C90.24 29.6 90.29 29.61 90.33 29.61L90.41 29.61L90.41 29.92L90.16 29.92C90.08 29.92 90 29.89 89.94 29.82C89.88 29.75 89.86 29.65 89.86 29.55L89.86 28.6L89.69 28.6L89.69 28.31L89.86 28.31L89.86 27.77L90.17 27.77L90.17 28.31L90.4 28.31L90.4 28.6L90.17 28.6L90.17 29.44ZM82.99 28.31L83.3 28.31L83.3 28.51C83.34 28.43 83.39 28.35 83.46 28.31C83.54 28.27 83.61 28.26 83.68 28.28L83.68 28.64C83.59 28.62 83.5 28.64 83.42 28.73C83.35 28.81 83.32 28.94 83.31 29.07L83.31 29.92L82.99 29.92L82.99 28.31ZM71.49 28.31L71.79 28.31L71.8 28.51C71.84 28.43 71.89 28.35 71.96 28.31C72.03 28.27 72.11 28.26 72.18 28.28L72.18 28.64C72.09 28.62 71.99 28.64 71.92 28.73C71.85 28.81 71.81 28.94 71.81 29.07L71.81 29.92L71.49 29.92L71.49 28.31ZM79.69 28.31L80.01 28.31L80.01 29.92L79.69 29.92L79.69 28.31ZM85.27 28.31L85.59 28.31L85.59 29.92L85.27 29.92L85.27 28.31ZM72.43 28.94L73.11 28.94L73.11 29.29L72.43 29.29L72.43 28.94ZM90.66 29.5L90.99 29.5L90.99 29.92L90.66 29.92L90.66 29.5ZM58.77 29.5L59.09 29.5L59.09 29.92L58.77 29.92L58.77 29.5ZM79.69 27.74L80.01 27.74L80.01 28.1L79.69 28.1L79.69 27.74ZM85.27 27.74L85.59 27.74L85.59 28.1L85.27 28.1L85.27 27.74Z" />
				<path id="Path 56" class="shp15" d="M51.11 79.21C51.11 79.21 53.39 80.04 54.22 80.66C55.05 81.29 55.61 82.25 59.69 82.18C62.88 82.13 69.06 82.12 71.58 82.12L71.58 82.11L72.19 82.12L72.21 82.12L72.68 82.11L72.68 82.12C75.67 82.12 83.89 82.13 87.2 82.18C91.28 82.25 91.83 81.29 92.66 80.66C93.49 80.04 95.77 79.21 95.77 79.21C95.7 79.28 93.42 81.35 92.66 82.32C91.9 83.29 90.24 83.84 90.24 83.84L72.48 84.18L72.47 84.19L72.16 84.18L71.78 84.19L71.78 84.17L56.64 83.84C56.64 83.84 54.98 83.29 54.22 82.32C53.46 81.35 51.18 79.28 51.11 79.21Z" />
				<path id="Path 57" class="shp5" d="M45.8 62.28C47.79 62.43 48.92 63.77 49.5 65.48" />
				<path id="Path 58" class="shp13" d="M97.22 65.89L104.57 65.81L104.57 69.04L96.05 69.13L97.22 65.89Z" />
				<path id="Path 59" class="shp16" d="M95.9 69.53L104.57 69.43L104.57 72.53L94.78 72.64L95.9 69.53Z" />
				<path id="Path 60" class="shp13" d="M94.75 72.98L104.25 72.9L104.25 76.12L93.58 76.22L94.75 72.98Z" />
				<path id="Path 61" class="shp5" d="M104.66 65.92L104.22 62.81M101.66 78.9C101.33 78.71 100.95 78.63 100.57 78.67M101.02 62.28C99.03 62.43 97.89 63.77 97.32 65.48M104.55 65.92L104.1 62.81M104.72 66.39L104.66 72.27M104.6 66.39L104.55 72.27" />
				<path id="Path 62" class="shp7" d="M100.67 63.93C100.71 63.92 100.75 63.93 100.78 63.96C100.81 63.98 100.82 64.03 100.81 64.07L99.26 74.31C99.18 74.77 98.88 75.16 98.47 75.33L95.68 76.48L98.53 66.01C98.83 65.04 99.56 64.29 100.46 64L100.67 63.93Z" />
				<path id="Path 63" class="shp5" d="M100.32 66.83L98.2 67.06M100.19 67.53L98 67.72M99.76 71.18L97.05 71.43M99.64 71.85C99.64 71.85 96.86 72.06 96.83 72.15M104.23 63.68L100.78 63.96" />
				<path id="Path 64" class="shp13" d="M49.46 65.89L42.11 65.81L42.11 69.04L50.64 69.13L49.46 65.89Z" />
				<path id="Path 65" class="shp16" d="M50.78 69.53L42.11 69.43L42.11 72.53L51.91 72.64L50.78 69.53Z" />
				<path id="Path 66" class="shp5" d="M42.27 65.92L42.72 62.81" />
				<path id="Path 67" class="shp13" d="M49.43 65.89L42.08 65.81L42.08 69.04L50.61 69.13L49.43 65.89Z" />
				<path id="Path 68" class="shp16" d="M50.75 69.53L42.08 69.43L42.08 72.53L51.88 72.64L50.75 69.53Z" />
				<path id="Path 69" class="shp13" d="M51.9 72.98L42.41 72.9L42.41 76.12L53.08 76.22L51.9 72.98Z" />
				<path id="Path 70" class="shp5" d="M42.21 66.39L42.27 72.27M46.5 66.83L48.62 67.06M46.62 67.53L48.82 67.72M47.06 71.18L49.76 71.43M47.18 71.85C47.18 71.85 49.96 72.06 49.99 72.15M42.59 63.68L46.04 63.96" />
				<path id="Path 71" class="shp7" d="M46.15 63.93C46.11 63.92 46.07 63.93 46.04 63.96C46.01 63.98 46 64.03 46.01 64.07L47.56 74.31C47.64 74.77 47.94 75.16 48.35 75.33L51.14 76.48L48.29 66.01C47.98 65.04 47.26 64.29 46.35 64L46.15 63.93Z" />
			</g>
		</g>
	</g>
</svg>